<?xml version="1.0"?><svg width="640" height="480" xmlns="http://www.w3.org/2000/svg">
 <title>fist blue</title>
 <metadata id="metadata5100">image/svg+xml</metadata>
 <g>
  <title>Layer 1</title>
  <path fill="#aad4ff" id="path5106" d="m138.958481,472.030304c-14.810944,-5.316833 -47.356384,10.596588 -48.873161,-11.507507c-2.302078,-42.369171 4.809753,-85.693787 -7.25164,-127.128052c-3.976639,-22.503052 -25.749691,-34.510681 -34.891788,-54.463257c-11.729332,-17.028595 -21.489111,-35.197418 -31.780291,-53.132126c-13.72411,-16.14415 -7.0255,-36.874954 -2.64067,-55.120987c6.960999,-20.675232 -1.5778,-42.995346 6.16509,-63.348068c16.939701,-13.094696 3.145,-34.293449 5.43989,-51.259537c-2.0861,-18.927601 15.609152,-29.100719 22.224031,-44.76778c12.500938,-5.6383 38.271542,-12.66169 44.53857,1.85222c-11.471252,-3.003409 -37.091522,-6.593309 -32.441231,11.846971c-11.957512,11.916689 5.75164,29.04125 3.60928,43.769411c2.884113,2.952179 21.212498,-1.451118 13.071148,9.872032c-18.042709,9.283966 3.407562,33.239037 16.765953,22.11158c5.687592,-4.882751 28.439522,-16.144981 13.509071,-2.772476c-12.961433,12.595276 -35.213982,21.875923 -42.18325,-1.658295c-5.588272,-7.896812 2.30941,-21.140755 -11.593651,-9.796555c-13.33379,3.07515 -12.775433,14.496796 -17.623741,22.524849c-21.113831,-2.348976 -0.434849,30.388039 12.138039,31.901817c14.299313,7.821716 36.977272,10.48201 47.510269,-3.75885c9.201454,-7.937714 17.83551,-26.232132 29.533684,-26.708092c0.537621,18.512733 -5.699043,44.107506 18.336777,50.363838c24.279465,13.554077 27.17276,-21.253754 30.147736,-37.082039c3.467209,-18.667961 -0.366837,-38.259949 5.628616,-56.337135c5.643616,-9.035995 6.410904,-27.198265 18.452362,-11.895546c-11.908661,12.94162 17.548523,30.753006 -4.184738,34.382317c-13.664871,15.702843 -10.187195,37.332054 -5.089264,55.38739c-3.845047,18.561218 24.842041,43.561768 36.836304,22.58551c4.57074,-23.020447 7.459732,-46.606804 10.781631,-69.937775c3.826035,-13.845276 -3.541092,-31.0075 -4.949188,-40.769054c10.106186,5.256512 10.557388,20.226833 25.362671,13.275631c7.718353,-4.407906 39.661987,9.182068 21.270966,10.188644c-7.931732,-5.38475 -31.175201,-0.61544 -10.157562,1.247215c-11.816132,11.082733 -28.280029,28.267319 -29.387772,47.710548c-5.537537,16.909088 0.013077,35.614365 20.043045,35.63974c12.949921,13.872208 23.096924,-14.583527 23.179688,-26.32045c2.19696,-15.238686 5.461151,-23.11573 9.855804,-10.108154c9.819183,5.314926 -14.35202,25.41481 -1.473755,35.65123c-12.77243,12.352325 -29.553741,18.860107 -38.154007,34.97937c-11.817276,14.263901 -29.675873,25.024551 -45.918304,28.577301c4.705109,9.590393 -1.748123,15.671783 -4.236572,3.173553c-0.305878,-11.861435 -18.198441,-36.75882 -17.714554,-11.5401c1.771866,8.483459 -4.96376,35.192566 -6.883804,14.078064c6.555771,-18.258896 -0.696335,-37.460648 -18.123413,-45.913239c-22.123138,3.708542 -42.813736,-8.599655 -64.696724,-5.007431c-3.110832,-5.492355 0.997787,-16.043488 -8.461761,-10.260422c4.752541,-7.77948 7.192162,-26.677963 -7.603691,-17.566376c-6.214584,-1.582947 -32.756371,-5.777908 -15.933292,4.176193c13.693623,-5.057922 15.829273,13.956909 1.320992,7.452988c-17.556751,-2.50679 -8.261929,15.558792 4.307163,11.783371c7.281395,6.662735 -32.942932,22.509109 -7.866112,30.962799c4.08812,6.931351 -7.174091,25.509903 10.582848,16.679916c9.684113,-3.770554 15.84491,-33.906525 22.064392,-28.493439c-5.774422,17.408844 -20.009438,35.835541 -11.554482,54.702835c10.867287,14.672104 31.997887,20.861954 34.740479,41.437851c5.5513,14.546631 17.972443,39.180511 36.755264,26.042725c6.189072,-17.495148 17.544205,1.379181 9.557449,11.234314c-3.282547,19.654327 4.571014,38.712433 1.812164,58.657227c-4.85347,9.929413 13.391388,39.136841 -3.84552,34.418457c-3.70961,-6.498962 1.28891,-36.355011 -7.964371,-29.349121c-0.769638,24.549622 2.895767,48.990845 3.80159,73.467529c-2.605484,4.856476 -11.175797,2.999146 -15.864655,3.866425zm106.13678,-4.211731c-6.930206,-25.443237 -14.680023,-51.214874 -13.874298,-77.908478c-7.419052,-18.842346 0.270187,-36.424652 9.346313,-53.069336c1.279709,-8.767944 15.013412,-29.12735 8.62001,-8.554688c-7.429245,19.499878 -17.975174,39.402924 -13.736069,60.974274c-0.615021,26.796875 10.087418,51.889404 13.612991,78.038361c0.147888,2.804382 -3.175598,2.599915 -3.968948,0.519867zm-61.66095,-42.344849c-5.988754,-20.33902 -2.182541,-42.369995 -8.536697,-62.763092c-7.360352,-19.15567 21.041183,-12.426422 22.919373,-3.423523c-19.861252,9.852753 -0.331741,33.367432 -9.903168,49.179291c0.872818,4.309906 4.167847,21.794189 -4.479507,17.007324zm9.781738,-91.565186c-17.207077,2.105743 -16.06955,-12.837189 -3.234161,-18.094177c7.043091,-14.574493 14.984573,-9.918488 22.530289,0.798401c5.877808,7.942047 37.972427,2.074005 17.077103,13.777435c-11.983994,2.371124 -24.101166,4.302338 -36.37323,3.518341zm59.226074,-27.08374c-1.195801,-12.05658 18.480484,-15.872803 8.203079,-3.465729c-1.725983,1.262115 -6.231201,7.64743 -8.203079,3.465729zm-88.484177,-13.251953c2.631149,-12.537781 0.458725,-40.312332 15.392227,-43.917572c7.652985,10.520447 -0.17189,24.570831 -4.804657,12.627899c-3.338562,9.684204 -3.301239,24.760162 -10.58757,31.289673zm101.624451,-4.754089c6.460236,-15.512909 13.03714,-34.217712 15.93576,-52.24707c5.765411,-15.786453 -0.077606,-39.935196 11.337799,-50.396378c2.102386,17.370377 -6.465118,36.759399 -7.104309,55.241348c-3.893738,15.584686 -3.046387,41.501129 -20.16925,47.4021zm26.362793,-109.866287c7.65152,-14.936234 9.95929,-31.832947 8.327667,-47.296234c11.76944,12.075668 2.881256,36.642761 -5.954895,48.703171l-1.620117,-0.172852l-0.752686,-1.234085l0.000031,0zm0.542847,-64.750412c-4.205597,-23.330215 12.749908,6.658714 0,0zm-4.644775,-17.141624c-10.039246,-13.536324 7.728729,-11.20266 2.168915,1.598694l-2.168915,-1.598694l0,0zm-154.018173,-18.955994c-7.05722,-12.632736 -19.141205,-31.671108 -35.229012,-18.952057c-20.7043,-7.420902 16.700104,-8.57542 6.819016,-21.62426c3.991608,-7.884743 -18.793419,-26.307292 -3.02861,-21.928582c6.037399,12.28221 11.005455,25.543931 24.398361,12.235751c16.180321,-0.649061 -8.037231,13.882349 -0.120163,23.89974c1.00869,7.469028 33.377556,25.682671 7.160408,26.369408zm-20.843689,-6.298225c-11.261459,-7.548706 -2.042099,-18.400345 2.87886,-3.826874c1.088608,1.59716 -0.577362,6.292427 -2.87886,3.826874zm90.787933,-5.34034c-1.502335,-9.740204 10.541321,3.834213 0,0zm14.762207,-0.551781c2.979965,-9.351303 -31.777557,-7.259342 -11.896347,-13.550282c10.72168,-0.364262 24.986542,7.35714 11.896347,13.550282zm-76.292892,-12.615742c-0.463593,-6.50996 16.421722,-16.603142 7.304031,-3.885323c0.327942,4.426891 -4.260544,5.228493 -7.304031,3.885323zm-11.490219,-5.497532c-2.567154,-8.48011 7.970322,1.38097 0,0zm45.248627,-5.231018c-4.57518,-6.63895 -28.265839,-14.323202 -6.428772,-12.903101c4.896561,-1.021521 17.913147,22.29788 6.428772,12.903101z"/>
 </g>
</svg>