<svg version="1.1" xmlns="http://www.w3.org/2000/svg" xmlns:xlink="http://www.w3.org/1999/xlink" width="128" height="128" viewBox="0,0,128,128"><g transform="translate(-176,-116)"><g data-paper-data="{&quot;isPaintingLayer&quot;:true}" fill-rule="nonzero" stroke-linecap="butt" stroke-linejoin="miter" stroke-miterlimit="10" stroke-dasharray="" stroke-dashoffset="0" style="mix-blend-mode: normal"><path d="M192,242c-7.73199,0 -14,0 -14,0v-124c0,0 6.26801,0 14,0h96c7.73199,0 14,0 14,0v124c0,0 -6.26801,0 -14,0z" fill="#620000" stroke="#b4efff" stroke-width="4"/><g stroke="none" stroke-width="1"><g><path d="M281.141,196.295v3.333c-27.40467,23.836 -54.80933,23.836 -82.214,0v-3.333z" fill="#ffffff"/><path d="M198.927,171.449c-2.02,-2.626 -3.90533,-5.353 -5.656,-8.181c2.35667,-3.97267 5.151,-7.60867 8.383,-10.908c2.89533,1.34667 5.656,2.929 8.282,4.747c2.69333,-2.49133 5.656,-4.646 8.888,-6.464c-0.47133,-3.434 -0.74067,-6.868 -0.808,-10.302c3.97267,-1.88533 8.11367,-3.29933 12.423,-4.242c1.75067,2.89533 3.29933,5.89167 4.646,8.989c3.29933,-0.47133 6.59867,-0.47133 9.898,0c1.34667,-3.09733 2.89533,-6.09367 4.646,-8.989c4.30933,0.94267 8.45033,2.35667 12.423,4.242c-0.06733,3.434 -0.33667,6.868 -0.808,10.302c3.232,1.818 6.19467,3.97267 8.888,6.464c2.626,-1.818 5.38667,-3.40033 8.282,-4.747c3.232,3.29933 6.02633,6.93533 8.383,10.908c-1.75067,2.828 -3.636,5.555 -5.656,8.181v24.846l-15.352,1.414c-0.808,0.06733 -1.313,0.53867 -1.515,1.414l-0.404,6.767l-13.332,1.01l-0.808,-6.161c-0.13467,-0.74067 -0.63967,-1.24567 -1.515,-1.515h-16.362c-0.87533,0.26933 -1.38033,0.77433 -1.515,1.515l-0.808,6.161l-13.332,-1.01l-0.404,-6.767c-0.202,-0.87533 -0.707,-1.34667 -1.515,-1.414l-15.352,-1.414zM212.562,200.84l0.505,6.969c0.13467,0.67333 0.606,1.111 1.414,1.313l16.362,1.111c0.808,0 1.34667,-0.37033 1.616,-1.111l1.01,-6.565h13.13l1.01,6.565c0.26933,0.74067 0.808,1.111 1.616,1.111l16.362,-1.111c0.808,-0.202 1.27933,-0.63967 1.414,-1.313l0.505,-6.969l13.534,-1.212v3.939c0,27.876 -82.113,27.876 -82.113,0v-3.939z" fill="#000000"/><path d="M237.105,180.236c0.303,-3.434 5.555,-3.434 5.858,0v8.686c-0.303,3.434 -5.555,3.434 -5.858,0z" fill="#620000"/><path d="M252.457,181.448c0,-5.02027 4.06973,-9.09 9.09,-9.09c5.02027,0 9.09,4.06973 9.09,9.09c0,5.02027 -4.06973,9.09 -9.09,9.09c-5.02027,0 -9.09,-4.06973 -9.09,-9.09z" fill="#620000"/><path d="M209.431,181.448c0,-5.02027 4.06973,-9.09 9.09,-9.09c5.02027,0 9.09,4.06973 9.09,9.09c0,5.02027 -4.06973,9.09 -9.09,9.09c-5.02027,0 -9.09,-4.06973 -9.09,-9.09z" fill="#620000"/></g><g fill="#000000"><path d="M213.269,182.054c0,-3.34685 2.71315,-6.06 6.06,-6.06c3.34685,0 6.06,2.71315 6.06,6.06c0,3.34685 -2.71315,6.06 -6.06,6.06c-3.34685,0 -6.06,-2.71315 -6.06,-6.06z"/><path d="M254.679,182.054c0,-3.34685 2.71315,-6.06 6.06,-6.06c3.34685,0 6.06,2.71315 6.06,6.06c0,3.34685 -2.71315,6.06 -6.06,6.06c-3.34685,0 -6.06,-2.71315 -6.06,-6.06z"/></g></g></g></g></svg>